<?xml version="1.0" encoding="utf-8"?>
<!DOCTYPE svg PUBLIC "-//W3C//DTD SVG 1.1//EN" "http://www.w3.org/Graphics/SVG/1.1/DTD/svg11.dtd">
<svg version="1.1" xmlns="http://www.w3.org/2000/svg" xmlns:xlink="http://www.w3.org/1999/xlink" x="0px" y="0px" width="800px" height="600px" viewBox="0 0 800 600" enable-background="new 0 0 800 600" xml:space="preserve">
  <rect id="svg_1" fill="#222222" width="800" height="600"/>
  <path id="svg_2" fill="none" stroke="#FF87D6" stroke-width="24" stroke-miterlimit="10" d="m210.735992,248.921997c33.649002,-58.347992 73.281006,-107.723999 110.919983,-140.479996c45.350006,-39.466003 88.507019,-54.923 111.775024,-41.505005c24.247986,13.983002 33.041992,61.814011 20.066986,124.796021c-9.809998,47.617996 -33.234009,104.212021 -65.175995,159.600998c-32.748993,56.787964 -70.25,106.819 -107.377014,139.271973c-46.979706,41.068024 -92.399963,55.928986 -116.184906,42.212982c-23.07901,-13.309998 -31.906006,-56.920959 -20.834,-115.232971c9.355042,-49.269989 32.832016,-109.744995 66.809921,-168.664001z"/>
  <path id="svg_3" fill="none" stroke="#FF87D6" stroke-width="24" stroke-miterlimit="10" d="m210.820999,351.481995c-33.746002,-58.291992 -56.731003,-117.287003 -66.311996,-166.255005c-11.544006,-58.999001 -3.382004,-104.109001 19.863998,-117.566002c24.223999,-14.023998 70.054993,2.244003 118.139999,44.940002c36.355988,32.280006 73.688019,80.836983 105.722992,136.172997c32.843994,56.733002 57.460999,114.209015 67.036011,162.582001c12.117004,61.213013 2.309021,107.983978 -21.453003,121.740021c-23.056976,13.347961 -65.248993,-0.783997 -110.238983,-39.499023c-38.013031,-32.710999 -78.682022,-83.252991 -112.759018,-142.11499z"/>
  <path id="svg_4" fill="none" stroke="#FF87D6" stroke-width="24" stroke-miterlimit="10" d="m299.528992,197.628006c67.355988,0 129.928009,9.665009 177.106995,25.906998c56.843994,19.569 91.794006,49.233002 91.794006,76.093018c0,27.990997 -37.041016,59.502991 -98.083008,79.727966c-46.151001,15.291016 -106.878998,23.272003 -170.817993,23.272003c-65.554001,0 -127.630005,-7.492004 -174.289993,-23.440979c-59.045998,-20.182007 -94.610998,-52.102997 -94.610998,-79.55899c0,-26.641998 33.370001,-56.076004 89.414999,-75.616028c47.354996,-16.508987 111.472,-26.383987 179.485992,-26.383987z"/>
  <rect fill="#222222" stroke-linejoin="null" stroke-linecap="null" x="350.00002" y="120" width="436.99998" height="244" id="NET_RECT"/>
  <circle id="svg_5" fill="#FF87D6" cx="299.529" cy="299.628" r="50.167"/>
  <path id="N" stroke-linecap="null" stroke-linejoin="null" fill="#FF87D6" d="m365,135.5v215h50v-100l35,100h50v-215h-50v100l-35,-100"/>
  <path id="E" stroke-linecap="null" stroke-linejoin="null" fill="#FF87D6" d="m520,135.5v215h110v-50h-60v-32.5h50v-50h-50v-32.5h60v-50"/>
  <path id="T" stroke-linecap="null" stroke-linejoin="null" fill="#FF87D6" d="m640,135.5v50h40v165h60v-165h40v-50"/>
</svg>
